<?xml version="1.0"?>
<svg version="1.1" xmlns="http://www.w3.org/2000/svg" xmlns:xlink="http://www.w3.org/1999/xlink" width="717" height="287">
    <desc iVinci="yes" version="4.5" gridStep="20" showGrid="no" snapToGrid="no" codePlatform="0"/>
    <g id="Layer1" opacity="1">
        <g id="Shape1">
            <desc shapeID="1" type="0" basicInfo-basicType="0" basicInfo-roundedRectRadius="12" basicInfo-polygonSides="6" basicInfo-starPoints="5" bounding="rect(-74.9297,-36.72,149.859,73.4399)" text="" font-familyName="" font-pixelSize="20" font-bold="0" font-underline="0" font-alignment="1" strokeStyle="0" markerStart="0" markerEnd="0" shadowEnabled="0" shadowOffsetX="0" shadowOffsetY="2" shadowBlur="4" shadowOpacity="160" blurEnabled="0" blurRadius="4" transform="matrix(1,0,0,1,137.315,36.72)" pers-center="0,0" pers-size="0,0" pers-start="0,0" pers-end="0,0" locked="0" mesh="" flag=""/>
            <path id="shapePath1" d="M212.245,73.3124 C209.74,73.8484 206.707,72.6244 204.852,70.9604 C201.729,70.1894 198.598,69.4494 195.456,68.7594 C188.084,67.1394 180.532,65.5084 172.992,64.9584 C169.896,64.7324 166.823,63.8544 163.859,63.5684 C160.742,63.2684 157.728,63.4824 154.641,62.7994 C151.574,62.1204 148.535,61.5724 145.378,61.8884 C141.858,62.2404 139.136,63.9014 135.492,63.3194 C130.207,62.4744 125.421,60.4324 120.322,58.9514 C118.304,58.3654 116.882,58.7764 116.146,60.8804 C112.183,60.6024 108.25,61.1134 104.369,61.8824 C97.8595,63.1744 91.3195,63.6364 84.8255,65.0314 C81.2725,65.7944 77.7475,66.6794 74.2465,67.6534 C70.4415,68.7114 66.3465,70.7684 62.3855,70.9604 C63.0265,65.6954 63.5695,60.3924 64.7745,55.2174 C65.7535,51.0164 68.9485,46.3794 68.7705,42.0644 C71.9325,39.2084 72.8805,33.7134 75.3815,30.2074 C78.4385,25.9214 82.1815,22.1954 85.6555,18.2584 C87.2155,16.4904 89.4485,15.4484 91.3745,14.0824 C93.5665,12.5264 95.6535,10.2484 98.2305,9.6244 C100.209,9.1454 101.836,7.86641 103.617,6.9514 C106.242,5.60241 109.254,4.8904 112.065,4.03941 C121.257,1.2564 130.304,-0.231594 139.943,0.0294037 C160.224,0.576405 178.356,6.6954 193.327,20.7264 C207.308,33.8284 211.327,55.0114 212.245,73.3124 Z" style="stroke:#ffffff;stroke-opacity:1;stroke-width:1;stroke-linejoin:miter;stroke-miterlimit:2;stroke-linecap:round;fill-rule:evenodd;fill:#ffffff;fill-opacity:1;"/>
        </g>
        <g id="Shape2">
            <desc shapeID="2" type="0" basicInfo-basicType="0" basicInfo-roundedRectRadius="12" basicInfo-polygonSides="6" basicInfo-starPoints="5" bounding="rect(-9.50094,-13.8454,19.0019,27.6908)" text="" font-familyName="" font-pixelSize="20" font-bold="0" font-underline="0" font-alignment="1" strokeStyle="0" markerStart="0" markerEnd="0" shadowEnabled="0" shadowOffsetX="0" shadowOffsetY="2" shadowBlur="4" shadowOpacity="160" blurEnabled="0" blurRadius="4" transform="matrix(1,0,0,1,147.729,114.374)" pers-center="0,0" pers-size="0,0" pers-start="0,0" pers-end="0,0" locked="0" mesh="" flag=""/>
            <path id="shapePath2" d="M157.139,100.529 C157.603,102.939 156.255,104.005 154.116,104.561 C151.348,106.359 149.286,108.984 147.618,111.792 C145.877,114.726 144.509,117.86 142.954,120.892 C142.463,121.85 139.383,129.485 138.314,128.038 C137.812,127.359 139.676,122.624 139.877,121.825 C140.633,118.824 141.652,115.891 143.272,113.238 C145.037,110.345 147.361,107.639 149.643,105.143 C150.822,103.853 152.093,102.641 153.51,101.614 C155.136,100.436 155.527,100.72 157.139,100.529 Z" style="stroke:#ffffff;stroke-opacity:1;stroke-width:1;stroke-linejoin:miter;stroke-miterlimit:2;stroke-linecap:round;fill-rule:evenodd;fill:#ffffff;fill-opacity:1;"/>
        </g>
        <g id="Shape3">
            <desc shapeID="3" type="0" basicInfo-basicType="0" basicInfo-roundedRectRadius="12" basicInfo-polygonSides="6" basicInfo-starPoints="5" bounding="rect(-9.14563,-14.1667,18.2913,28.3333)" text="" font-familyName="" font-pixelSize="20" font-bold="0" font-underline="0" font-alignment="1" strokeStyle="0" markerStart="0" markerEnd="0" shadowEnabled="0" shadowOffsetX="0" shadowOffsetY="2" shadowBlur="4" shadowOpacity="160" blurEnabled="0" blurRadius="4" transform="matrix(1,0,0,1,147.993,121.08)" pers-center="0,0" pers-size="0,0" pers-start="0,0" pers-end="0,0" locked="0" mesh="" flag=""/>
            <path id="shapePath3" d="M157.139,106.913 C156.745,109.638 154.16,110.008 152.676,111.851 C150.67,114.343 149.095,117.188 147.859,120.131 C145.634,125.421 145.547,131.013 140.626,134.785 C139.813,135.409 138.648,135.585 138.877,134.114 C139.077,132.819 140.454,132.2 141.012,131.105 C142.566,128.047 142.908,124.628 144.622,121.594 C146.878,117.6 151.927,106.913 157.139,106.913 Z" style="stroke:#ffffff;stroke-opacity:1;stroke-width:1;stroke-linejoin:miter;stroke-miterlimit:2;stroke-linecap:round;fill-rule:evenodd;fill:#ffffff;fill-opacity:1;"/>
        </g>
        <g id="Shape4">
            <desc shapeID="4" type="0" basicInfo-basicType="0" basicInfo-roundedRectRadius="12" basicInfo-polygonSides="6" basicInfo-starPoints="5" bounding="rect(-19.1523,-15.1916,38.3045,30.3831)" text="" font-familyName="" font-pixelSize="20" font-bold="0" font-underline="0" font-alignment="1" strokeStyle="0" markerStart="0" markerEnd="0" shadowEnabled="0" shadowOffsetX="0" shadowOffsetY="2" shadowBlur="4" shadowOpacity="160" blurEnabled="0" blurRadius="4" transform="matrix(1,0,0,1,82.8838,131.047)" pers-center="0,0" pers-size="0,0" pers-start="0,0" pers-end="0,0" locked="0" mesh="" flag=""/>
            <path id="shapePath4" d="M73.1385,115.985 C70.5015,124.238 76.4145,130.458 79.4645,137.516 C80.3365,139.535 83.4045,137.307 84.8935,136.451 C86.8515,135.325 88.8185,134.382 90.9355,133.59 C94.2085,132.365 98.4085,129.229 102.036,130.097 C101.64,131.773 99.7865,131.82 98.4375,132.172 C96.6195,132.647 95.2235,134.211 93.6355,135.137 C92.0375,136.069 91.2265,137.786 89.8765,138.603 C89.2215,138.999 89.2325,139.694 88.2595,139.505 C88.2595,140.744 88.7005,141.331 87.4515,141.753 C85.8625,142.289 84.3465,143.109 82.6735,143.371 C81.8085,143.507 80.8725,143.458 80.1515,142.896 C78.9895,141.991 79.0155,142.496 77.5755,143.096 C73.4835,144.801 68.1345,147.518 63.7315,145.554 C64.0245,144.536 68.5665,144.146 69.6625,143.658 C72.3685,142.453 74.9335,140.863 77.8445,140.178 C74.7935,136.827 72.5985,132.631 71.4575,128.253 C70.7555,125.558 70.4655,122.751 70.6875,119.972 C70.8845,117.497 70.5795,115.29 73.1385,115.985 Z" style="stroke:#ffffff;stroke-opacity:1;stroke-width:1;stroke-linejoin:miter;stroke-miterlimit:2;stroke-linecap:round;fill-rule:evenodd;fill:#ffffff;fill-opacity:1;"/>
        </g>
        <g id="Shape5">
            <desc shapeID="5" type="0" basicInfo-basicType="0" basicInfo-roundedRectRadius="12" basicInfo-polygonSides="6" basicInfo-starPoints="5" bounding="rect(-9.96877,-4.6394,19.9376,9.27879)" text="" font-familyName="" font-pixelSize="20" font-bold="0" font-underline="0" font-alignment="1" strokeStyle="0" markerStart="0" markerEnd="0" shadowEnabled="0" shadowOffsetX="0" shadowOffsetY="2" shadowBlur="4" shadowOpacity="160" blurEnabled="0" blurRadius="4" transform="matrix(1,0,0,1,116.258,122.214)" pers-center="0,0" pers-size="0,0" pers-start="0,0" pers-end="0,0" locked="0" mesh="" flag=""/>
            <path id="shapePath5" d="M126.227,117.666 C125.086,119.461 123.572,118.999 121.86,119.682 C119.584,120.589 117.688,122.182 115.811,123.714 C114.649,124.663 113.492,125.632 112.097,126.227 C111.1,126.651 105.821,127.67 106.323,125.592 C106.626,124.338 109.293,124.022 110.319,123.262 C111.61,122.306 112.884,121.325 114.243,120.466 C117.884,118.159 121.936,117.268 126.227,117.666 Z" style="stroke:#ffffff;stroke-opacity:1;stroke-width:1;stroke-linejoin:miter;stroke-miterlimit:2;stroke-linecap:round;fill-rule:evenodd;fill:#ffffff;fill-opacity:1;"/>
        </g>
        <g id="Shape6">
            <desc shapeID="6" type="0" basicInfo-basicType="0" basicInfo-roundedRectRadius="12" basicInfo-polygonSides="6" basicInfo-starPoints="5" bounding="rect(-1.7034,-1.32629,3.4068,2.65258)" text="" font-familyName="" font-pixelSize="20" font-bold="0" font-underline="0" font-alignment="1" strokeStyle="0" markerStart="0" markerEnd="0" shadowEnabled="0" shadowOffsetX="0" shadowOffsetY="2" shadowBlur="4" shadowOpacity="160" blurEnabled="0" blurRadius="4" transform="matrix(1,0,0,1,105.708,123.375)" pers-center="0,0" pers-size="0,0" pers-start="0,0" pers-end="0,0" locked="0" mesh="" flag=""/>
            <path id="shapePath6" d="M107.411,122.37 C107.052,123.691 105.687,125.419 104.051,124.386 C103.643,122.297 105.998,121.56 107.411,122.37 Z" style="stroke:#ffffff;stroke-opacity:1;stroke-width:1;stroke-linejoin:miter;stroke-miterlimit:2;stroke-linecap:round;fill-rule:evenodd;fill:#ffffff;fill-opacity:1;"/>
        </g>
        <g id="Shape7">
            <desc shapeID="7" type="0" basicInfo-basicType="0" basicInfo-roundedRectRadius="12" basicInfo-polygonSides="6" basicInfo-starPoints="5" bounding="rect(-8.87585,-4.38048,17.7517,8.76093)" text="" font-familyName="" font-pixelSize="20" font-bold="0" font-underline="0" font-alignment="1" strokeStyle="0" markerStart="0" markerEnd="0" shadowEnabled="0" shadowOffsetX="0" shadowOffsetY="2" shadowBlur="4" shadowOpacity="160" blurEnabled="0" blurRadius="4" transform="matrix(1,0,0,1,120.374,133.055)" pers-center="0,0" pers-size="0,0" pers-start="0,0" pers-end="0,0" locked="0" mesh="" flag=""/>
            <path id="shapePath7" d="M129.25,135.81 C128.222,138.747 121.919,136.977 120.114,136.114 C118.688,135.432 109.816,130.263 111.781,129.132 C114.778,127.407 118.76,130.999 120.819,132.698 C122.255,133.883 123.196,134.62 125.099,134.682 C126.33,134.722 128.539,134.477 129.25,135.81 Z" style="stroke:#ffffff;stroke-opacity:1;stroke-width:1;stroke-linejoin:miter;stroke-miterlimit:2;stroke-linecap:round;fill-rule:evenodd;fill:#ffffff;fill-opacity:1;"/>
        </g>
        <g id="Shape8">
            <desc shapeID="8" type="0" basicInfo-basicType="0" basicInfo-roundedRectRadius="12" basicInfo-polygonSides="6" basicInfo-starPoints="5" bounding="rect(-3.52574,-4.97052,7.05148,9.94103)" text="" font-familyName="" font-pixelSize="20" font-bold="0" font-underline="0" font-alignment="1" strokeStyle="0" markerStart="0" markerEnd="0" shadowEnabled="0" shadowOffsetX="0" shadowOffsetY="2" shadowBlur="4" shadowOpacity="160" blurEnabled="0" blurRadius="4" transform="matrix(1,0,0,1,109.645,135.62)" pers-center="0,0" pers-size="0,0" pers-start="0,0" pers-end="0,0" locked="0" mesh="" flag=""/>
            <path id="shapePath8" d="M113.123,140.514 C111.141,140.968 111.319,139.293 110.435,138.162 C108.57,135.957 105.311,135.104 106.303,131.678 C107.076,129.009 110.391,132.247 111.167,133.368 C112.565,135.388 113.382,138.049 113.123,140.514 Z" style="stroke:#ffffff;stroke-opacity:1;stroke-width:1;stroke-linejoin:miter;stroke-miterlimit:2;stroke-linecap:round;fill-rule:evenodd;fill:#ffffff;fill-opacity:1;"/>
        </g>
        <g id="Shape9">
            <desc shapeID="9" type="0" basicInfo-basicType="0" basicInfo-roundedRectRadius="12" basicInfo-polygonSides="6" basicInfo-starPoints="5" bounding="rect(-8.53608,-5.71012,17.0722,11.4202)" text="" font-familyName="" font-pixelSize="20" font-bold="0" font-underline="0" font-alignment="1" strokeStyle="0" markerStart="0" markerEnd="0" shadowEnabled="0" shadowOffsetX="0" shadowOffsetY="2" shadowBlur="4" shadowOpacity="160" blurEnabled="0" blurRadius="4" transform="matrix(1,0,0,1,92.8259,140.176)" pers-center="0,0" pers-size="0,0" pers-start="0,0" pers-end="0,0" locked="0" mesh="" flag=""/>
            <path id="shapePath9" d="M101.362,134.466 C101.073,136.341 99.1895,136.934 98.5135,138.576 C97.7405,140.456 97.2785,142.477 96.2765,144.26 C95.4015,145.817 91.8325,145.188 90.0075,145.486 C89.2575,145.609 83.3885,146.626 84.4085,144.846 C85.9245,142.203 92.4065,145.004 94.1495,142.037 C95.9725,138.936 97.3695,135.174 101.362,134.466 Z" style="stroke:#ffffff;stroke-opacity:1;stroke-width:1;stroke-linejoin:miter;stroke-miterlimit:2;stroke-linecap:round;fill-rule:evenodd;fill:#ffffff;fill-opacity:1;"/>
        </g>
        <g id="Shape10">
            <desc shapeID="10" type="0" basicInfo-basicType="0" basicInfo-roundedRectRadius="12" basicInfo-polygonSides="6" basicInfo-starPoints="5" bounding="rect(-4.5997,-19.488,9.19938,38.976)" text="" font-familyName="" font-pixelSize="20" font-bold="0" font-underline="0" font-alignment="1" strokeStyle="0" markerStart="0" markerEnd="0" shadowEnabled="0" shadowOffsetX="0" shadowOffsetY="2" shadowBlur="4" shadowOpacity="160" blurEnabled="0" blurRadius="4" transform="matrix(1,0,0,1,219.192,163.026)" pers-center="0,0" pers-size="0,0" pers-start="0,0" pers-end="0,0" locked="0" mesh="" flag=""/>
            <path id="shapePath10" d="M218.628,143.538 C223.229,143.538 223.645,160.403 223.761,163.949 C223.997,171.178 223.046,180.393 214.596,182.514 C214.465,180.045 217.816,178.802 218.434,176.348 C219.168,173.437 219.407,170.379 219.637,167.394 C219.968,163.082 219.702,158.728 219.331,154.428 C219.04,151.055 217.559,146.829 218.628,143.538 Z" style="stroke:#ffffff;stroke-opacity:1;stroke-width:1;stroke-linejoin:miter;stroke-miterlimit:2;stroke-linecap:round;fill-rule:evenodd;fill:#ffffff;fill-opacity:1;"/>
        </g>
        <g id="Shape11">
            <desc shapeID="11" type="0" basicInfo-basicType="0" basicInfo-roundedRectRadius="12" basicInfo-polygonSides="6" basicInfo-starPoints="5" bounding="rect(-5.09508,-20.8563,10.1902,41.7127)" text="" font-familyName="" font-pixelSize="20" font-bold="0" font-underline="0" font-alignment="1" strokeStyle="0" markerStart="0" markerEnd="0" shadowEnabled="0" shadowOffsetX="0" shadowOffsetY="2" shadowBlur="4" shadowOpacity="160" blurEnabled="0" blurRadius="4" transform="matrix(1,0,0,1,224.059,164.73)" pers-center="0,0" pers-size="0,0" pers-start="0,0" pers-end="0,0" locked="0" mesh="" flag=""/>
            <path id="shapePath11" d="M225.349,143.874 C227.953,143.874 228.611,153.198 228.85,155.454 C229.353,160.213 229.179,164.935 228.715,169.687 C228.507,171.823 228.246,173.974 227.692,176.05 C227.297,177.529 225.322,179.292 225.684,180.834 C222.935,181.466 222.086,186.11 218.964,185.538 C220.285,182.863 222.642,180.866 223.659,178.009 C224.897,174.533 224.62,170.237 224.997,166.584 C225.784,158.978 225.028,151.332 225.349,143.874 Z" style="stroke:#ffffff;stroke-opacity:1;stroke-width:1;stroke-linejoin:miter;stroke-miterlimit:2;stroke-linecap:round;fill-rule:evenodd;fill:#ffffff;fill-opacity:1;"/>
        </g>
        <g id="Shape12">
            <desc shapeID="12" type="0" basicInfo-basicType="0" basicInfo-roundedRectRadius="12" basicInfo-polygonSides="6" basicInfo-starPoints="5" bounding="rect(-4.7909,-19.657,9.58178,39.314)" text="" font-familyName="" font-pixelSize="20" font-bold="0" font-underline="0" font-alignment="1" strokeStyle="0" markerStart="0" markerEnd="0" shadowEnabled="0" shadowOffsetX="0" shadowOffsetY="2" shadowBlur="4" shadowOpacity="160" blurEnabled="0" blurRadius="4" transform="matrix(1,0,0,1,210.972,164.202)" pers-center="0,0" pers-size="0,0" pers-start="0,0" pers-end="0,0" locked="0" mesh="" flag=""/>
            <path id="shapePath12" d="M211.237,144.545 C216.489,144.545 215.739,163.611 215.71,167.14 C215.658,173.164 213.359,182.281 206.196,183.859 C205.92,180.983 209.503,178.59 210.317,175.892 C211.733,171.201 211.655,166.174 212.245,161.346 C212.662,160.324 211.517,160.861 211.052,160.658 C211.044,160.654 212.171,156.929 212.217,156.402 C212.566,152.419 211.31,148.512 211.237,144.545 Z" style="stroke:#ffffff;stroke-opacity:1;stroke-width:1;stroke-linejoin:miter;stroke-miterlimit:2;stroke-linecap:round;fill-rule:evenodd;fill:#ffffff;fill-opacity:1;"/>
        </g>
        <g id="Shape13">
            <desc shapeID="13" type="0" basicInfo-basicType="0" basicInfo-roundedRectRadius="12" basicInfo-polygonSides="6" basicInfo-starPoints="5" bounding="rect(-4.83239,-18.371,9.66479,36.742)" text="" font-familyName="" font-pixelSize="20" font-bold="0" font-underline="0" font-alignment="1" strokeStyle="0" markerStart="0" markerEnd="0" shadowEnabled="0" shadowOffsetX="0" shadowOffsetY="2" shadowBlur="4" shadowOpacity="160" blurEnabled="0" blurRadius="4" transform="matrix(1,0,0,1,204.544,163.588)" pers-center="0,0" pers-size="0,0" pers-start="0,0" pers-end="0,0" locked="0" mesh="" flag=""/>
            <path id="shapePath13" d="M206.869,145.217 C211.767,145.217 208.034,162.593 207.725,165.422 C207.054,171.557 206.109,175.859 202.139,180.637 C201.638,181.241 199.433,183.106 199.741,180.937 C199.913,179.721 201.037,178.877 201.707,177.939 C203.496,175.432 203.605,171.016 204.417,168.06 C206.416,160.777 208.508,152.779 206.869,145.217 Z" style="stroke:#ffffff;stroke-opacity:1;stroke-width:1;stroke-linejoin:miter;stroke-miterlimit:2;stroke-linecap:round;fill-rule:evenodd;fill:#ffffff;fill-opacity:1;"/>
        </g>
        <g id="Shape14">
            <desc shapeID="14" type="0" basicInfo-basicType="0" basicInfo-roundedRectRadius="12" basicInfo-polygonSides="6" basicInfo-starPoints="5" bounding="rect(-6.62317,-11.2911,13.2463,22.5823)" text="" font-familyName="" font-pixelSize="20" font-bold="0" font-underline="0" font-alignment="1" strokeStyle="0" markerStart="0" markerEnd="0" shadowEnabled="0" shadowOffsetX="0" shadowOffsetY="2" shadowBlur="4" shadowOpacity="160" blurEnabled="0" blurRadius="4" transform="matrix(1,0,0,1,65.2983,180.491)" pers-center="0,0" pers-size="0,0" pers-start="0,0" pers-end="0,0" locked="0" mesh="" flag=""/>
            <path id="shapePath14" d="M65.7475,191.587 C65.8415,188.827 68.5135,187.019 68.5035,184.105 C68.4915,180.506 67.2785,176.876 65.4645,173.801 C64.3715,171.947 63.9065,171.612 61.7725,171.502 C61.3165,171.479 57.9545,171.408 58.8155,170.207 C60.0565,168.475 64.0155,169.324 65.7085,170.181 C69.6495,172.177 71.6565,176.881 71.9115,181.098 C72.0785,183.854 70.1415,193.246 65.7475,191.587 Z" style="stroke:#ffffff;stroke-opacity:1;stroke-width:1;stroke-linejoin:miter;stroke-miterlimit:2;stroke-linecap:round;fill-rule:evenodd;fill:#ffffff;fill-opacity:1;"/>
        </g>
        <g id="Shape15">
            <desc shapeID="15" type="0" basicInfo-basicType="0" basicInfo-roundedRectRadius="12" basicInfo-polygonSides="6" basicInfo-starPoints="5" bounding="rect(-19.4988,-10.8884,38.9975,21.7769)" text="" font-familyName="" font-pixelSize="20" font-bold="0" font-underline="0" font-alignment="1" strokeStyle="0" markerStart="0" markerEnd="0" shadowEnabled="0" shadowOffsetX="0" shadowOffsetY="2" shadowBlur="4" shadowOpacity="160" blurEnabled="0" blurRadius="4" transform="matrix(1,0,0,1,110.111,194.882)" pers-center="0,0" pers-size="0,0" pers-start="0,0" pers-end="0,0" locked="0" mesh="" flag=""/>
            <path id="shapePath15" d="M126.899,184.531 C129.159,187.891 129.595,192.943 129.61,196.862 C129.615,198.355 128.857,208.574 125.555,205.027 C124.409,203.845 126.877,204.256 126.563,203.01 C127.187,200.345 126.907,197.654 126.407,194.996 C125.812,191.839 126.41,189.413 122.559,189.478 C119.533,189.529 116.617,190.554 113.583,190.673 C107.81,190.9 102.092,189.655 96.7055,187.645 C95.5045,187.197 94.3175,186.711 93.1435,186.198 C92.5155,185.924 90.9585,184.629 90.6125,184.53 C91.2945,183.162 94.3815,184.809 95.5835,185.081 C105.625,187.348 116.945,187.201 126.899,184.531 Z" style="stroke:#ffffff;stroke-opacity:1;stroke-width:1;stroke-linejoin:miter;stroke-miterlimit:2;stroke-linecap:round;fill-rule:evenodd;fill:#ffffff;fill-opacity:1;"/>
        </g>
        <g id="Shape16">
            <desc shapeID="16" type="0" basicInfo-basicType="0" basicInfo-roundedRectRadius="12" basicInfo-polygonSides="6" basicInfo-starPoints="5" bounding="rect(-13.104,-3.82726,26.208,7.65451)" text="" font-familyName="" font-pixelSize="20" font-bold="0" font-underline="0" font-alignment="1" strokeStyle="0" markerStart="0" markerEnd="0" shadowEnabled="0" shadowOffsetX="0" shadowOffsetY="2" shadowBlur="4" shadowOpacity="160" blurEnabled="0" blurRadius="4" transform="matrix(1,0,0,1,41.8895,190.783)" pers-center="0,0" pers-size="0,0" pers-start="0,0" pers-end="0,0" locked="0" mesh="" flag=""/>
            <path id="shapePath16" d="M54.9935,189.234 C54.0285,191.148 51.5465,191.533 49.6825,191.987 C48.9885,192.156 47.5925,192.937 46.8865,192.47 C45.3515,191.455 47.1055,190.814 44.4485,190.928 C38.9875,191.163 34.1785,194.05 28.7855,194.61 C28.8335,191.887 39.5105,189.092 41.6545,188.504 C44.9105,187.609 52.8275,185.163 54.9935,189.234 Z" style="stroke:#ffffff;stroke-opacity:1;stroke-width:1;stroke-linejoin:miter;stroke-miterlimit:2;stroke-linecap:round;fill-rule:evenodd;fill:#ffffff;fill-opacity:1;"/>
        </g>
        <g id="Shape17">
            <desc shapeID="17" type="0" basicInfo-basicType="0" basicInfo-roundedRectRadius="12" basicInfo-polygonSides="6" basicInfo-starPoints="5" bounding="rect(-1.34406,-1.01038,2.68811,2.02074)" text="" font-familyName="" font-pixelSize="20" font-bold="0" font-underline="0" font-alignment="1" strokeStyle="0" markerStart="0" markerEnd="0" shadowEnabled="0" shadowOffsetX="0" shadowOffsetY="2" shadowBlur="4" shadowOpacity="160" blurEnabled="0" blurRadius="4" transform="matrix(1,0,0,1,79.5234,250.389)" pers-center="0,0" pers-size="0,0" pers-start="0,0" pers-end="0,0" locked="0" mesh="" flag=""/>
            <path id="shapePath17" d="M78.5155,249.379 C79.9615,250.525 80.8675,249.196 80.8675,251.396 C79.8975,251.448 79.1115,250.933 78.1795,251.396 C78.1705,250.617 78.7115,250.21 78.5155,249.379 Z" style="stroke:#ffffff;stroke-opacity:1;stroke-width:1;stroke-linejoin:miter;stroke-miterlimit:2;stroke-linecap:round;fill-rule:evenodd;fill:#ffffff;fill-opacity:1;"/>
        </g>
        <g id="Shape18">
            <desc shapeID="18" type="0" basicInfo-basicType="0" basicInfo-roundedRectRadius="12" basicInfo-polygonSides="6" basicInfo-starPoints="5" bounding="rect(-11.7639,-23.4335,23.5279,46.867)" text="" font-familyName="" font-pixelSize="20" font-bold="0" font-underline="0" font-alignment="1" strokeStyle="0" markerStart="0" markerEnd="0" shadowEnabled="0" shadowOffsetX="0" shadowOffsetY="2" shadowBlur="4" shadowOpacity="160" blurEnabled="0" blurRadius="4" transform="matrix(1,0,0,1,167.697,153.531)" pers-center="0,0" pers-size="0,0" pers-start="0,0" pers-end="0,0" locked="0" mesh="" flag=""/>
            <path id="shapePath18" d="M179.317,130.098 C179.588,131.276 179.003,131.766 178.007,132.149 C176.159,132.86 177.766,134.835 178.167,136.32 C179.265,140.382 179.718,144.718 179.316,148.913 C177.521,147.292 174.73,133.774 171.439,136.415 C169.273,138.153 167.882,140.569 166.932,143.143 C165.899,145.94 163.854,150.663 164.531,153.618 C165.388,157.365 170.778,157.611 171.233,161.601 C171.969,168.065 164.258,172.259 160.555,176.296 C159.295,177.669 156.103,176.836 155.942,174.642 C155.803,172.748 157.256,170.812 158.265,169.344 C159.359,167.75 160.784,166.183 161.506,164.369 C159.852,162.562 157.544,161.22 156.642,158.828 C154.613,153.446 160.402,146.728 163.256,142.7 C166.691,137.854 172.729,130.098 179.317,130.098 Z" style="stroke:#ffffff;stroke-opacity:1;stroke-width:1;stroke-linejoin:miter;stroke-miterlimit:2;stroke-linecap:round;fill-rule:evenodd;fill:#ffffff;fill-opacity:1;"/>
        </g>
        <g id="Shape19">
            <desc shapeID="19" type="0" basicInfo-basicType="0" basicInfo-roundedRectRadius="12" basicInfo-polygonSides="6" basicInfo-starPoints="5" bounding="rect(-30.2502,-47.4712,60.5004,94.9425)" text="" font-familyName="" font-pixelSize="20" font-bold="0" font-underline="0" font-alignment="1" strokeStyle="0" markerStart="0" markerEnd="0" shadowEnabled="0" shadowOffsetX="0" shadowOffsetY="2" shadowBlur="4" shadowOpacity="160" blurEnabled="0" blurRadius="4" transform="matrix(1,0,0,1,172.268,158.738)" pers-center="0,0" pers-size="0,0" pers-start="0,0" pers-end="0,0" locked="0" mesh="" flag=""/>
            <path id="shapePath19" d="M194.1,164.034 C195.755,161.556 195.876,158.296 197.795,155.971 C199.371,157.798 197.325,159.608 196.788,161.347 C196.42,162.543 196.96,163.564 196.396,164.8 C195.851,165.996 195.087,167.109 194.772,168.403 C194.1,171.156 194.169,172.657 192.411,175.115 C191.233,176.763 190.812,179.327 189.06,180.499 C194.299,177.723 195.757,171.061 197.52,165.906 C199.569,159.916 200.991,153.928 201.156,147.571 C204.393,148.055 200.915,165.149 200.387,167.62 C199.649,171.082 198.237,174.416 196.017,177.192 C195.286,178.107 188.658,184.534 189.06,180.836 C187.426,181.993 186.965,184.282 184.692,184.532 C185.256,181.751 187.586,179.966 188.572,177.389 C189.626,174.637 190.799,171.375 192.42,168.74 C190.329,170.566 188.943,173.099 187.294,175.297 C185.265,177.999 182.9,180.439 180.819,183.102 C180.096,184.027 177.684,185.465 176.292,185.54 C175.382,188.666 174.045,191.636 172.875,194.668 C170.331,201.254 160.277,210.447 153.002,204.04 C149.676,201.111 148.563,195.897 148.745,191.653 C148.811,190.109 149.07,187.873 150.755,187.22 C152.635,188.584 151.775,191.304 152.843,193.125 C158.614,202.96 177.279,193.453 171.587,184.195 C182.867,179.35 188.483,168.644 191.649,157.404 C193.383,151.245 195.389,144.976 194.572,138.504 C193.781,132.244 190.83,126.655 187.96,121.138 C185.498,116.406 178.206,113.639 173.237,114.124 C170.508,114.391 167.074,115.034 164.932,116.879 C163.131,118.432 160.696,118.999 158.792,120.774 C156.778,122.651 156.128,124.124 154.711,126.494 C154.026,127.64 153.256,128.731 152.514,129.84 C151.133,131.901 151.282,131.906 148.912,132.119 C145.846,132.394 148.24,134.249 147.73,135.81 C145.9,137.421 144.74,139.442 142.018,139.505 C142.05,137.237 144.414,137.109 145.378,135.473 C145.765,134.463 144.32,135.14 144.706,134.129 C145.416,132.306 145.962,130.425 146.56,128.563 C148.338,123.021 151.498,114.919 157.811,113.297 C157.428,115.583 155.086,116.464 153.655,117.978 C151.672,120.076 151.636,123.461 150.755,126.065 C158.121,112.382 177.503,105.411 189.538,117.456 C195.421,123.345 196.211,129.773 198.069,137.471 C200.249,146.504 196.141,155.336 194.1,164.034 M160.499,200.659 C158.763,201.516 156.306,199.856 154.787,200.659 C156.472,201.779 159.047,202.039 160.499,200.659 Z" style="stroke:#ffffff;stroke-opacity:1;stroke-width:1;stroke-linejoin:miter;stroke-miterlimit:2;stroke-linecap:round;fill-rule:evenodd;fill:#ffffff;fill-opacity:1;"/>
        </g>
        <g id="Shape20">
            <desc shapeID="20" type="0" basicInfo-basicType="0" basicInfo-roundedRectRadius="12" basicInfo-polygonSides="6" basicInfo-starPoints="5" bounding="rect(-127.965,-106.002,255.929,212.003)" text="" font-familyName="" font-pixelSize="20" font-bold="0" font-underline="0" font-alignment="1" strokeStyle="0" markerStart="0" markerEnd="0" shadowEnabled="0" shadowOffsetX="0" shadowOffsetY="2" shadowBlur="4" shadowOpacity="160" blurEnabled="0" blurRadius="4" transform="matrix(1,0,0,1,127.965,181.011)" pers-center="0,0" pers-size="0,0" pers-start="0,0" pers-end="0,0" locked="0" mesh="" flag=""/>
            <path id="shapePath20" d="M250.886,107.921 C250.525,107.296 250.412,106.624 250.549,105.904 C249.969,105.226 249.361,104.574 248.724,103.949 C247.128,102.378 245.383,100.968 243.582,99.6414 C242.2,98.6234 240.726,98.8294 239.254,97.8534 C237.641,96.7824 235.78,96.1444 233.962,95.5214 C230.182,94.2294 226.441,92.7704 222.732,91.2864 C218.037,89.4084 213.368,89.0504 208.549,87.7594 C206.396,87.1824 204.64,85.6844 202.5,85.0714 C200.42,84.4754 198.215,84.5794 196.116,84.0634 C191.4,82.9054 186.813,81.1264 182.004,80.3674 C176.908,79.5614 171.742,79.1534 166.607,78.1804 C164.028,77.6924 161.435,77.2524 158.82,77.0074 C156.344,76.7744 153.723,77.5594 151.32,76.7194 C143.075,73.8354 132.757,75.3474 124.197,75.9114 C119.168,76.2424 114.127,76.4764 109.112,76.9934 C104.32,77.4874 100.026,79.2154 95.3065,79.7594 C85.6905,80.8684 76.0455,83.6914 66.9275,86.8884 C62.9415,88.2854 59.3485,90.1524 55.5055,91.7984 C53.5525,92.6344 49.5075,96.5844 47.2675,95.1524 C47.9545,97.3544 42.4545,98.6884 41.0825,99.6574 C38.4055,101.547 36.1855,104.012 33.4345,105.806 C30.8085,107.518 28.6625,109.784 26.0435,111.624 C23.4475,113.447 20.9585,115.496 20.0505,118.673 C24.2145,118.646 27.8515,116.497 31.5955,114.962 C33.6035,114.14 35.6895,113.496 37.8585,113.297 C39.6875,112.246 40.7045,111.811 42.9505,111.389 C48.0795,110.425 53.1945,109.378 58.3545,108.593 C59.3675,108.914 59.0875,110.467 60.1965,110.671 C61.4765,110.906 62.1685,107.817 63.0595,106.913 C67.5275,102.246 76.3975,99.3234 82.7055,100.618 C85.2035,101.131 88.0705,101.793 90.3235,103.025 C93.5105,104.767 95.3335,109.475 99.6835,108.93 C97.7965,103.08 87.4485,97.1384 81.7425,96.3584 C78.3335,95.8924 74.6725,96.3084 71.3825,97.2754 C67.7635,98.3394 65.0135,100.868 61.7155,102.546 C61.8825,101.568 62.2195,100.63 62.3395,99.6434 C62.5425,97.9644 63.2725,98.0364 64.8155,97.3634 C67.3295,96.2664 69.9405,95.4044 72.5905,94.6994 C78.6845,93.0784 84.9605,92.2574 91.2055,91.4744 C104.101,89.8594 116.508,88.6584 129.524,89.6364 C142.124,90.5834 154.692,92.2714 167.253,93.6234 C180.183,95.0144 193.322,95.7944 206.108,98.2284 C208.509,98.6854 212.663,98.7934 213.915,100.998 C215.325,103.48 216.587,106.047 217.756,108.651 C220.346,114.422 222.447,120.39 224.251,126.449 C227.72,138.102 230.367,150.149 231.299,162.289 C231.68,167.26 231.214,172.456 229.382,177.14 C227.466,182.032 222.686,185.95 222.553,191.482 C222.46,195.331 225.634,197.71 227.217,200.913 C229.127,204.776 231.112,210.237 229.364,214.491 C226.051,222.555 211.927,223.839 204.658,224.43 C202.12,224.636 199.563,225.966 197.072,226.61 C194.32,227.32 191.537,227.894 188.771,228.545 C186.389,229.105 184.512,230.339 182.164,230.97 C180.028,231.543 177.688,231.837 175.764,233 C174.052,234.036 171.354,234.55 169.339,235.181 C166.516,236.064 164.011,237.017 161.257,238.249 C158.375,239.539 155.46,240.756 152.528,241.927 C151.046,242.519 149.559,243.099 148.069,243.67 C147.536,244.631 146.63,245.174 145.633,245.548 C140.749,247.383 137.322,251.017 133.116,253.996 C130.998,255.496 129.3,257.843 127.108,259.025 C124.939,260.196 122.995,261.715 121.003,263.154 C118.966,264.626 116.841,265.991 114.467,266.854 C113.481,268.759 111.294,269.461 109.608,270.563 C106.743,272.433 103.972,274.247 100.381,274.692 C91.7005,275.767 85.1045,270.054 82.3975,262.159 C81.7305,260.212 81.2845,258.189 81.0425,256.145 C80.6255,252.629 79.2995,254.858 76.8355,253.414 C77.1735,252.229 75.6955,250.441 74.4015,251.182 C72.9995,251.985 72.4285,254.061 71.6415,250.909 C70.6515,246.946 73.8405,243.138 75.6405,239.918 C76.4365,238.495 77.3295,236.692 76.7055,235.028 C76.0745,233.341 74.2055,233.029 74.4825,230.902 C73.5785,231.322 73.3365,231.653 72.8035,230.567 C73.5855,229.876 74.5435,229.944 74.1475,228.55 C73.1055,227.33 71.8355,230.154 70.3535,228.221 C67.6775,224.732 65.2045,221.097 64.0665,216.79 C67.4775,217.848 71.0585,217.245 74.4875,216.63 C77.6515,216.062 80.7975,216.16 83.9545,215.702 C85.1755,215.525 85.6415,215.281 86.5475,214.543 C87.6335,213.658 89.0325,213.896 90.2745,213.43 C93.1905,212.336 96.0035,211.001 98.6745,209.398 C104.003,206.202 109.762,203.84 114.957,200.433 C118.725,197.961 123.925,195.776 124.211,190.581 C121.299,190.548 120.183,193.43 118.162,194.949 C115.393,197.031 111.608,199.945 108.359,201.106 C105.014,202.302 102.224,204.091 99.1265,205.807 C97.4945,206.711 95.7985,207.521 94.0035,208.047 C92.0435,208.621 90.6115,210.017 88.6575,210.761 C85.3065,212.036 81.6825,212.443 78.1795,213.093 C73.9615,213.875 69.7485,215.142 65.4105,214.773 C65.0745,214.325 64.7385,213.877 64.4025,213.429 C64.4625,212.503 64.4625,211.577 64.4025,210.652 C64.2965,209.08 63.9905,207.524 63.4585,206.04 C62.4195,203.144 60.5425,200.724 58.6905,198.31 C60.1845,197.306 64.3305,193.954 60.8695,192.905 C59.7425,192.563 58.5085,192.59 57.3465,192.598 C56.8875,194.13 57.9255,194.119 58.3545,195.286 C49.9275,198.592 40.4105,197.833 31.5585,197.542 C26.8455,197.388 22.1145,197.265 17.4105,197.671 C13.2865,198.027 8.51448,199.679 4.59448,197.638 C6.86948,193.377 9.34648,189.212 12.2075,185.315 C15.0315,181.468 18.3185,179.046 21.7495,175.854 C24.9115,172.911 27.6625,169.569 30.6025,166.413 C33.3415,163.471 37.6295,161.114 39.8455,157.961 C44.3025,151.618 50.8545,147.732 55.2525,141.205 C57.7825,137.45 59.5975,133.503 60.6265,129.085 C61.1145,126.991 63.2685,119.938 60.3725,118.678 C58.8485,121.276 58.7605,124.785 57.8815,127.64 C56.9435,130.688 55.7245,133.645 54.2305,136.462 C50.9595,142.631 45.4175,147.329 40.5525,152.266 C38.2405,154.612 35.9755,157.058 33.5535,159.289 C32.6395,160.13 31.6305,160.888 30.4675,161.351 C29.9495,162.743 28.9455,163.867 27.8765,164.863 C22.8995,169.501 18.1625,174.379 13.2165,179.05 C10.4345,181.676 8.26548,183.777 6.29548,187.076 C4.48048,190.116 2.69248,193.174 0.996483,196.282 C-0.673531,199.343 -0.38752,200.242 2.95148,201.055 C5.83148,201.757 8.36048,202.021 11.3395,201.728 C17.7225,201.1 23.9495,200.845 30.3705,200.983 C36.7565,201.119 43.3445,201.418 49.6205,199.993 C52.1505,200.093 54.8875,199.582 56.7865,202.028 C59.6415,205.705 61.0945,210.155 61.3815,214.776 C58.5505,215.039 62.8765,223.499 63.7515,225.054 C66.3005,229.588 68.8365,234.405 73.4775,236.616 C72.3905,239.944 69.7825,242.51 68.4805,245.762 C67.8185,247.414 67.5555,249.15 67.7285,250.923 C67.8545,252.224 68.9905,254.165 67.7105,254.772 C68.2965,255.428 68.9285,256.038 69.6045,256.6 C70.7665,257.481 71.7345,256.951 72.9685,257.454 C74.7475,257.215 78.0845,256.202 78.2675,258.266 C78.5655,261.644 79.2885,265.047 80.8355,268.087 C84.0585,274.425 90.4885,277.229 97.3345,277.608 C94.6435,278.26 91.9995,279.109 89.4365,280.157 C87.1775,281.08 84.9555,282.679 82.6025,283.26 C80.7955,283.706 78.5015,283.779 77.0625,285.113 C74.9255,287.093 78.1895,287.902 79.1905,285.673 C78.6535,287.72 83.1595,285.059 83.3145,284.988 C85.6855,283.909 88.1695,283.154 90.5325,282.031 C92.8555,280.926 95.0745,280.526 97.5495,279.947 C100.467,279.263 102.595,277.824 105.76,277.592 C108.552,277.386 113.866,277.579 116.411,275.769 C118.635,274.188 115.902,273.265 114.322,273.677 C112.593,274.128 110.132,276.033 108.423,274.585 C119.013,268.797 128.59,261.427 138.446,254.514 C143.448,251.005 148.268,248.131 153.741,245.559 C156.361,244.328 158.854,243.01 161.647,242.199 C164.244,241.444 166.356,239.745 168.904,238.97 C180.741,235.36 192.361,230.801 204.544,228.423 C207.646,227.818 210.759,227.531 213.885,227.109 C216.638,226.737 219.026,225.564 221.739,225.058 C224.477,224.548 225.202,223.27 227.032,221.496 C228.636,219.951 230.058,219.529 231.384,217.5 C233.53,214.214 235.057,210.664 233.818,206.687 C233.3,205.027 232.372,203.547 231.64,201.981 C230.841,200.271 230.926,197.923 229.863,196.467 C228.72,194.905 226.558,193.323 226.362,191.257 C226.144,188.964 228.365,186.223 229.358,184.292 C231.951,179.252 234.719,174.033 235.77,168.407 C234.688,166.343 235.058,163.71 235.124,161.477 C235.21,158.54 234.817,155.598 234.358,152.703 C233.408,146.702 231.843,140.816 230.335,134.937 C228.781,128.88 227.116,122.852 225.297,116.87 C224.399,113.917 223.463,110.976 222.486,108.049 C221.676,105.619 218.532,104.096 218.633,101.206 C221.862,102.54 225.267,103.405 228.467,104.813 C230.116,105.539 231.321,106.467 233.101,106.75 C235.166,107.079 237.15,107.756 239.044,108.63 C241.6,109.809 244.846,110.873 247.193,112.295 C249.91,113.941 252.358,117.075 255.929,115.991 C255.389,112.554 252.401,110.812 250.886,107.921 Z" style="stroke:#ffffff;stroke-opacity:1;stroke-width:1;stroke-linejoin:miter;stroke-miterlimit:2;stroke-linecap:round;fill-rule:evenodd;fill:#ffffff;fill-opacity:1;"/>
        </g>
        <g id="Shape21">
            <desc shapeID="21" type="2" basicInfo-basicType="0" basicInfo-roundedRectRadius="12" basicInfo-polygonSides="6" basicInfo-starPoints="5" bounding="rect(-225.737,-60.7456,451.474,121.491)" text="Sam&#10;" font-familyName="SignPainter" font-pixelSize="208" font-bold="0" font-underline="0" font-alignment="0" strokeStyle="0" markerStart="0" markerEnd="0" shadowEnabled="0" shadowOffsetX="0" shadowOffsetY="2" shadowBlur="4" shadowOpacity="160" blurEnabled="0" blurRadius="4" transform="matrix(1,0,0,1,484.235,121.475)" pers-center="0,0" pers-size="0,0" pers-start="0,0" pers-end="0,0" locked="0" mesh="" flag=""/>
            <path id="shapePath21" d="M251.637,145.462 C249.765,146.086 248.933,147.542 251.221,150.246 C280.549,185.606 316.741,181.654 329.221,167.302 C338.373,156.694 339.413,147.126 331.509,141.51 C319.861,133.19 293.237,122.166 293.861,108.646 C294.901,82.6464 346.069,50.8224 353.141,58.1024 C358.133,63.3024 342.533,80.5664 338.165,90.5504 C333.797,100.326 336.293,106.774 340.245,110.726 C342.533,113.014 343.781,111.974 344.821,110.102 C347.733,104.902 353.765,94.2944 359.173,87.0144 C362.293,82.6464 367.285,74.5344 365.205,66.2144 C363.749,60.3904 360.005,53.5264 354.805,48.7424 C347.941,42.5024 337.957,44.1664 327.973,48.3264 C309.461,56.2304 277.221,80.5664 277.221,109.062 C277.221,130.486 310.085,143.382 321.109,152.742 C324.021,155.238 325.061,159.606 321.525,163.558 C318.821,165.846 314.453,167.302 308.629,167.302 C295.109,167.302 280.965,156.486 272.645,149.83 C267.029,145.254 258.501,143.382 251.637,145.462 M415.33,105.734 C415.746,97.6224 411.586,90.7584 402.642,90.7584 C392.242,90.7584 375.81,100.118 358.962,124.662 C341.698,149.83 345.65,176.246 364.994,176.246 C374.978,176.246 384.338,168.55 390.994,160.022 C390.994,169.798 396.818,176.454 408.05,177.078 C419.49,177.702 432.594,166.262 438.002,154.822 C440.706,148.998 440.706,143.798 439.874,141.926 C439.042,140.054 437.586,140.262 436.546,142.134 C429.266,156.486 417.826,170.63 409.298,171.046 C402.226,171.462 402.434,162.518 407.634,150.87 C412.626,139.846 423.026,124.246 427.602,114.886 C432.594,104.486 430.93,95.5424 427.81,91.7984 C426.354,89.9264 424.69,90.3424 422.818,93.0464 C420.53,96.3744 418.034,100.742 415.33,105.734 M397.234,137.974 C386.626,156.278 375.81,169.59 367.282,169.382 C359.17,169.174 361.874,150.87 372.898,132.982 C384.338,114.47 399.522,100.95 406.178,101.574 C412.21,102.198 410.338,115.094 397.234,137.974 M465.443,114.262 C468.563,105.942 469.187,97.8304 465.651,92.0064 C464.403,89.9264 462.739,89.7184 461.283,92.0064 C448.179,111.558 432.995,140.886 428.627,153.99 C425.091,164.598 426.131,171.462 430.707,175.414 C432.579,177.078 433.827,176.246 434.659,174.374 C442.979,154.822 452.963,135.478 465.235,122.166 C478.547,107.606 488.739,101.99 491.235,103.03 C495.395,104.486 472.931,133.19 466.067,150.454 C460.035,165.43 462.947,173.542 466.483,176.662 C468.355,178.742 470.019,178.118 471.267,175.622 C480.003,156.07 490.195,136.102 507.459,118.838 C520.979,105.318 528.051,103.03 529.715,103.654 C532.835,104.694 514.323,127.99 506.627,145.254 C498.931,162.31 505.587,176.662 523.683,176.662 C535.747,176.662 549.059,166.262 554.883,154.406 C557.171,149.622 557.795,142.758 556.755,141.302 C555.715,139.846 554.051,139.846 553.011,141.718 C544.899,156.278 535.539,170.006 527.011,170.214 C519.523,170.422 516.611,160.854 522.435,148.998 C527.635,138.598 537.827,124.87 541.571,115.51 C545.731,105.11 544.067,92.8384 536.579,92.6304 C529.715,92.4224 515.779,102.198 505.795,111.974 C508.499,102.822 504.755,91.7984 497.683,91.5904 C490.195,91.3824 474.595,103.654 465.443,114.262 Z" style="stroke:#ffffff;stroke-opacity:1;stroke-width:1;stroke-linejoin:miter;stroke-miterlimit:2;stroke-linecap:round;fill-rule:nonzero;fill:#ffffff;fill-opacity:1;"/>
        </g>
        <g id="Shape22">
            <desc shapeID="22" type="2" basicInfo-basicType="0" basicInfo-roundedRectRadius="12" basicInfo-polygonSides="6" basicInfo-starPoints="5" bounding="rect(-241.5,-43.5,483,87)" text="Simple Asset Management" font-familyName="SignPainter" font-pixelSize="55" font-bold="0" font-underline="0" font-alignment="1" strokeStyle="0" markerStart="0" markerEnd="0" shadowEnabled="0" shadowOffsetX="0" shadowOffsetY="2" shadowBlur="4" shadowOpacity="160" blurEnabled="0" blurRadius="4" transform="matrix(1,0,0,1,489.026,213.357)" pers-center="0,0" pers-size="0,0" pers-start="0,0" pers-end="0,0" locked="0" mesh="" flag=""/>
            <path id="shapePath22" d="M264.321,218.987 C263.826,219.152 263.606,219.537 264.211,220.252 C271.966,229.602 281.536,228.557 284.836,224.762 C287.256,221.957 287.531,219.427 285.441,217.942 C282.361,215.742 275.321,212.827 275.486,209.252 C275.761,202.377 289.291,193.962 291.161,195.887 C292.481,197.262 288.356,201.827 287.201,204.467 C286.046,207.052 286.706,208.757 287.751,209.802 C288.356,210.407 288.686,210.132 288.961,209.637 C289.731,208.262 291.326,205.457 292.756,203.532 C293.581,202.377 294.901,200.232 294.351,198.032 C293.966,196.492 292.976,194.677 291.601,193.412 C289.786,191.762 287.146,192.202 284.506,193.302 C279.611,195.392 271.086,201.827 271.086,209.362 C271.086,215.027 279.776,218.437 282.691,220.912 C283.461,221.572 283.736,222.727 282.801,223.772 C282.086,224.377 280.931,224.762 279.391,224.762 C275.816,224.762 272.076,221.902 269.876,220.142 C268.391,218.932 266.136,218.437 264.321,218.987 M302.536,201.112 C301.821,199.627 300.226,198.967 299.346,199.902 C298.466,200.837 298.191,202.487 299.071,203.972 C299.896,205.402 301.436,205.567 302.151,204.797 C302.866,204.027 303.251,202.542 302.536,201.112 M293.571,227.182 C296.651,227.182 300.116,224.872 301.766,221.462 C302.426,220.087 302.591,218.932 302.151,218.052 C301.931,217.612 301.546,217.557 301.271,218.052 C299.621,221.847 296.596,225.477 294.121,225.587 C292.361,225.697 292.251,223.552 293.571,220.362 C294.726,217.612 297.036,213.872 298.191,211.452 C299.511,208.702 299.071,206.337 298.246,205.457 C297.806,204.962 297.421,205.127 296.926,205.787 C294.891,208.647 291.261,215.137 289.886,219.152 C288.346,223.662 289.391,227.182 293.571,227.182 M309.513,210.737 C310.338,208.537 310.503,206.392 309.568,204.852 C309.238,204.302 308.798,204.247 308.413,204.852 C304.948,210.022 300.933,217.777 299.778,221.242 C298.843,224.047 299.118,225.862 300.328,226.907 C300.823,227.347 301.153,227.127 301.373,226.632 C303.573,221.462 306.213,216.347 309.458,212.827 C312.978,208.977 315.673,207.492 316.333,207.767 C317.433,208.152 311.493,215.742 309.678,220.307 C308.083,224.267 308.853,226.412 309.788,227.237 C310.283,227.787 310.723,227.622 311.053,226.962 C313.363,221.792 316.058,216.512 320.623,211.947 C324.198,208.372 326.068,207.767 326.508,207.932 C327.333,208.207 322.438,214.367 320.403,218.932 C318.368,223.442 320.128,227.237 324.913,227.237 C328.103,227.237 331.623,224.487 333.163,221.352 C333.768,220.087 333.933,218.272 333.658,217.887 C333.383,217.502 332.943,217.502 332.668,217.997 C330.523,221.847 328.048,225.477 325.793,225.532 C323.813,225.587 323.043,223.057 324.583,219.922 C325.958,217.172 328.653,213.542 329.643,211.067 C330.743,208.317 330.303,205.072 328.323,205.017 C326.508,204.962 322.823,207.547 320.183,210.132 C320.898,207.712 319.908,204.797 318.038,204.742 C316.058,204.687 311.933,207.932 309.513,210.737 M343.381,226.137 C345.471,224.872 347.506,222.232 349.156,218.602 C351.191,214.092 352.401,209.197 349.761,206.392 C347.396,203.917 344.151,205.457 341.731,207.547 C341.786,206.612 341.676,205.787 341.401,205.072 C341.126,204.412 340.631,204.302 340.081,205.017 C336.616,209.637 327.376,227.072 325.726,232.407 C324.681,235.762 324.956,237.302 325.781,238.457 C326.111,238.952 326.496,238.842 326.716,238.347 C329.356,232.242 332.161,226.632 334.746,221.902 C334.911,223.277 335.461,224.542 336.616,225.587 C338.541,227.347 340.851,227.842 344.371,227.622 C348.331,227.347 352.071,225.532 354.161,221.737 C355.096,220.032 354.986,218.602 354.876,218.107 C354.766,217.557 354.161,217.337 353.831,218.107 C352.071,221.847 348.771,225.807 343.381,226.137 M337.826,216.402 C338.486,215.247 339.091,214.257 339.696,213.267 C342.281,209.032 345.691,206.282 347.011,206.942 C348.386,207.602 347.781,212.167 345.636,216.567 C343.051,221.847 339.476,225.862 337.716,224.432 C336.176,223.167 336.451,219.867 337.826,216.402 M358.338,215.357 C363.233,212.167 369.393,205.567 371.098,198.802 C371.758,196.217 371.428,194.182 369.833,192.752 C369.063,192.037 368.293,192.147 367.468,193.027 C361.858,198.857 355.588,208.812 353.553,218.382 C352.288,224.322 354.323,226.962 358.118,227.072 C362.518,227.182 366.533,222.617 367.303,220.967 C367.908,219.647 368.128,218.437 367.853,217.557 C367.633,216.787 367.028,216.842 366.643,217.557 C364.498,221.792 360.648,225.752 358.008,225.532 C355.533,225.312 356.138,220.747 358.338,215.357 M359.328,212.992 C359.713,212.112 360.153,211.232 360.648,210.352 C364.443,203.312 368.513,197.207 369.228,197.647 C369.943,198.087 366.863,206.887 359.328,212.992 M370.649,216.952 C374.499,220.087 378.184,218.657 380.879,215.357 C383.189,212.552 383.629,209.197 382.639,207.877 C381.759,206.667 380.769,205.842 379.394,205.017 C376.644,203.422 371.034,206.282 367.459,213.377 C363.884,220.472 366.304,227.347 373.289,227.237 C377.524,227.182 381.759,224.652 384.069,221.297 C385.059,219.867 385.224,218.327 385.004,217.887 C384.784,217.392 384.344,217.392 384.069,217.832 C381.704,221.462 377.689,225.862 373.124,225.642 C370.209,225.477 368.889,222.012 370.649,216.952 M371.144,215.742 C371.254,215.467 371.419,215.137 371.584,214.807 C374.169,209.582 378.734,206.282 379.889,207.217 C380.659,207.822 379.449,210.682 377.689,212.992 C376.094,215.082 373.839,217.447 371.144,215.742 M412.491,217.722 C412.326,219.372 412.271,220.802 412.271,221.902 C412.326,225.037 413.206,226.412 414.306,226.907 C414.801,227.127 415.131,226.962 415.131,226.412 C415.241,223.497 415.571,220.472 415.956,217.612 C416.891,217.667 417.661,217.777 418.321,217.942 C418.816,218.107 419.036,217.942 418.926,217.447 C418.706,216.292 418.101,215.192 416.451,214.642 C417.496,208.592 419.036,202.982 420.466,198.637 C420.961,197.152 421.016,195.942 420.466,194.622 C419.916,193.247 419.751,193.137 419.201,192.367 C418.651,191.597 418.101,191.597 417.221,192.312 C411.391,197.097 403.746,207.987 399.456,215.467 C398.576,215.412 397.751,215.302 396.981,215.192 C396.156,215.082 396.046,215.302 396.321,216.017 C396.486,216.402 396.926,217.227 398.136,217.887 C397.476,219.097 396.981,220.197 396.651,221.022 C395.496,224.102 395.716,225.752 396.376,226.632 C396.651,227.017 397.146,227.017 397.366,226.522 C398.466,224.102 399.896,221.407 401.546,218.602 C404.131,218.657 408.586,217.997 412.491,217.722 M403.636,215.302 C407.816,208.757 412.821,202.102 417.001,197.427 C415.296,201.717 413.756,208.647 412.931,214.367 C410.346,214.422 406.991,215.027 403.636,215.302 M422.281,217.337 C422.226,216.897 422.226,216.457 422.171,216.017 C422.116,215.137 421.676,214.917 421.016,215.467 C419.146,217.007 418.981,220.637 420.301,223.112 C422.171,226.522 425.251,227.347 428.441,227.237 C432.346,227.072 436.086,224.982 438.176,221.187 C439.111,219.482 439.166,218.052 438.946,217.557 C438.726,217.117 438.176,216.952 437.901,217.557 C436.526,220.527 434.216,223.827 430.531,225.202 C432.511,223.882 432.896,221.572 433.006,219.427 C433.171,215.632 432.126,211.342 432.511,206.282 C432.731,205.897 432.896,205.567 433.116,205.237 C433.831,203.972 434.106,203.367 433.556,202.817 C433.061,202.322 431.796,202.542 430.586,203.642 C429.431,204.687 428.881,205.732 428.606,207.877 C427.011,210.682 424.536,214.257 422.281,217.337 M428.496,211.397 C428.716,215.797 429.541,224.432 427.011,225.202 C425.196,225.752 423.601,223.497 422.776,220.307 C424.866,217.337 426.901,214.312 428.496,211.397 M438.89,217.337 C438.835,216.897 438.835,216.457 438.78,216.017 C438.725,215.137 438.285,214.917 437.625,215.467 C435.755,217.007 435.59,220.637 436.91,223.112 C438.78,226.522 441.86,227.347 445.05,227.237 C448.955,227.072 452.695,224.982 454.785,221.187 C455.72,219.482 455.775,218.052 455.555,217.557 C455.335,217.117 454.785,216.952 454.51,217.557 C453.135,220.527 450.825,223.827 447.14,225.202 C449.12,223.882 449.505,221.572 449.615,219.427 C449.78,215.632 448.735,211.342 449.12,206.282 C449.34,205.897 449.505,205.567 449.725,205.237 C450.44,203.972 450.715,203.367 450.165,202.817 C449.67,202.322 448.405,202.542 447.195,203.642 C446.04,204.687 445.49,205.732 445.215,207.877 C443.62,210.682 441.145,214.257 438.89,217.337 M445.105,211.397 C445.325,215.797 446.15,224.432 443.62,225.202 C441.805,225.752 440.21,223.497 439.385,220.307 C441.475,217.337 443.51,214.312 445.105,211.397 M458.305,216.952 C462.155,220.087 465.84,218.657 468.535,215.357 C470.845,212.552 471.285,209.197 470.295,207.877 C469.415,206.667 468.425,205.842 467.05,205.017 C464.3,203.422 458.69,206.282 455.115,213.377 C451.54,220.472 453.96,227.347 460.945,227.237 C465.18,227.182 469.415,224.652 471.725,221.297 C472.715,219.867 472.88,218.327 472.66,217.887 C472.44,217.392 472,217.392 471.725,217.832 C469.36,221.462 465.345,225.862 460.78,225.642 C457.865,225.477 456.545,222.012 458.305,216.952 M458.8,215.742 C458.91,215.467 459.075,215.137 459.24,214.807 C461.825,209.582 466.39,206.282 467.545,207.217 C468.315,207.822 467.105,210.682 465.345,212.992 C463.75,215.082 461.495,217.447 458.8,215.742 M477.651,204.962 C475.286,209.307 472.976,213.927 471.821,216.677 C469.181,223.002 472.096,227.072 475.726,227.182 C480.126,227.347 483.756,222.507 484.471,220.912 C485.021,219.647 485.296,218.657 485.021,217.777 C484.801,217.007 484.196,217.117 483.866,217.777 C481.831,221.902 478.696,225.807 476.221,225.697 C473.911,225.587 473.306,222.177 475.121,218.162 C477.211,213.542 480.346,208.207 482.491,204.522 C483.866,204.302 485.571,204.137 486.781,204.302 C487.606,204.302 487.826,203.917 487.441,203.257 C487.001,202.542 486.176,201.552 484.031,201.607 C485.351,198.747 485.351,196.932 484.746,195.392 C484.471,194.732 483.921,194.677 483.426,195.392 C482.491,196.602 480.951,199.187 479.246,202.212 C477.761,202.377 476.221,202.487 474.681,202.432 C473.856,202.377 473.526,202.762 474.076,203.532 C474.516,204.137 475.781,204.962 477.651,204.962 M509.431,202.432 C507.011,209.747 505.196,217.337 504.701,220.472 C504.151,223.882 504.976,225.807 506.791,227.127 C507.231,227.457 507.506,227.292 507.781,226.742 C511.741,219.372 518.121,210.957 524.391,203.367 C520.816,210.242 517.296,217.942 516.471,221.187 C515.536,224.817 516.196,226.467 517.076,227.182 C517.516,227.567 517.736,227.567 517.956,227.017 C520.706,219.097 526.206,207.987 530.056,200.837 C531.541,198.087 532.091,195.062 529.891,192.807 C529.231,192.147 528.791,192.202 528.296,192.972 C522.246,202.377 514.216,210.572 508.221,220.362 C510.311,212.662 512.291,206.227 514.051,200.947 C515.481,196.602 514.876,194.677 512.731,192.807 C512.016,192.202 511.466,192.422 510.971,193.137 C505.031,201.222 496.121,215.907 494.086,221.132 C492.821,224.432 493.426,226.302 494.196,227.127 C494.581,227.567 494.911,227.567 495.131,227.017 C498.376,219.647 504.536,209.802 509.431,202.432 M543.19,208.482 C543.3,206.337 542.2,204.522 539.835,204.522 C537.085,204.522 532.74,206.997 528.285,213.487 C523.72,220.142 524.765,227.127 529.88,227.127 C532.52,227.127 534.995,225.092 536.755,222.837 C536.755,225.422 538.295,227.182 541.265,227.347 C544.29,227.512 547.755,224.487 549.185,221.462 C549.9,219.922 549.9,218.547 549.68,218.052 C549.46,217.557 549.075,217.612 548.8,218.107 C546.875,221.902 543.85,225.642 541.595,225.752 C539.725,225.862 539.78,223.497 541.155,220.417 C542.475,217.502 545.225,213.377 546.435,210.902 C547.755,208.152 547.315,205.787 546.49,204.797 C546.105,204.302 545.665,204.412 545.17,205.127 C544.565,206.007 543.905,207.162 543.19,208.482 M538.405,217.007 C535.6,221.847 532.74,225.367 530.485,225.312 C528.34,225.257 529.055,220.417 531.97,215.687 C534.995,210.792 539.01,207.217 540.77,207.382 C542.365,207.547 541.87,210.957 538.405,217.007 M556.545,210.187 C557.15,208.207 557.205,206.337 556.38,204.962 C556.05,204.412 555.61,204.357 555.225,204.962 C551.76,210.077 547.525,217.722 546.425,221.187 C545.545,223.937 545.875,225.752 546.975,226.852 C547.47,227.347 547.8,227.127 548.02,226.632 C550.385,221.462 552.805,216.182 556.05,212.662 C559.57,208.812 562.76,207.272 563.31,207.492 C564.3,207.932 559.46,213.762 557.645,219.152 C556.05,223.937 557.15,227.347 561.825,227.347 C565.015,227.347 568.48,224.542 569.965,221.462 C570.735,219.867 570.845,218.602 570.46,217.997 C570.185,217.557 569.8,217.557 569.525,218.052 C567.435,221.902 564.74,225.532 562.485,225.642 C560.505,225.752 560.175,223.167 561.605,219.977 C562.87,217.117 565.565,213.047 566.72,210.627 C568.095,207.767 566.39,205.072 564.575,204.797 C562.76,204.522 559.02,207.547 556.545,210.187 M586.409,208.482 C586.519,206.337 585.419,204.522 583.054,204.522 C580.304,204.522 575.959,206.997 571.504,213.487 C566.939,220.142 567.984,227.127 573.099,227.127 C575.739,227.127 578.214,225.092 579.974,222.837 C579.974,225.422 581.514,227.182 584.484,227.347 C587.509,227.512 590.974,224.487 592.404,221.462 C593.119,219.922 593.119,218.547 592.899,218.052 C592.679,217.557 592.294,217.612 592.019,218.107 C590.094,221.902 587.069,225.642 584.814,225.752 C582.944,225.862 582.999,223.497 584.374,220.417 C585.694,217.502 588.444,213.377 589.654,210.902 C590.974,208.152 590.534,205.787 589.709,204.797 C589.324,204.302 588.884,204.412 588.389,205.127 C587.784,206.007 587.124,207.162 586.409,208.482 M581.624,217.007 C578.819,221.847 575.959,225.367 573.704,225.312 C571.559,225.257 572.274,220.417 575.189,215.687 C578.214,210.792 582.229,207.217 583.989,207.382 C585.584,207.547 585.089,210.957 581.624,217.007 M613.789,221.407 C614.724,219.922 614.999,218.712 614.889,218.217 C614.779,217.667 614.284,217.667 613.954,218.107 C611.754,221.022 608.729,224.047 604.109,226.357 C606.419,221.022 609.884,214.367 611.534,211.067 C612.909,208.372 612.469,206.007 611.644,205.017 C611.259,204.522 610.709,204.577 610.269,205.347 C609.719,206.282 609.114,207.272 608.454,208.372 C608.509,206.447 607.409,204.742 605.209,204.742 C602.404,204.742 597.949,207.217 593.659,213.597 C589.204,220.197 590.194,227.072 595.254,227.072 C597.289,227.072 599.214,225.917 600.809,224.322 C600.259,225.587 599.764,226.907 599.214,228.117 C593.769,230.207 589.039,233.562 587.444,238.512 C586.399,241.757 587.389,243.682 588.544,245.332 C589.534,246.762 590.634,246.927 591.734,246.487 C596.189,244.727 600.094,235.982 603.119,228.612 C607.684,226.962 611.644,224.762 613.789,221.407 M603.669,217.117 C600.864,221.957 598.059,225.422 595.914,225.367 C593.714,225.312 594.319,220.472 597.289,215.742 C600.314,210.957 604.329,207.437 606.034,207.547 C607.629,207.657 607.134,211.067 603.669,217.117 M598.279,230.372 C594.704,238.732 590.359,244.452 589.644,243.407 C588.709,242.087 591.129,234.552 598.279,230.372 M618.071,216.952 C621.921,220.087 625.606,218.657 628.301,215.357 C630.611,212.552 631.051,209.197 630.061,207.877 C629.181,206.667 628.191,205.842 626.816,205.017 C624.066,203.422 618.456,206.282 614.881,213.377 C611.306,220.472 613.726,227.347 620.711,227.237 C624.946,227.182 629.181,224.652 631.491,221.297 C632.481,219.867 632.646,218.327 632.426,217.887 C632.206,217.392 631.766,217.392 631.491,217.832 C629.126,221.462 625.111,225.862 620.546,225.642 C617.631,225.477 616.311,222.012 618.071,216.952 M618.566,215.742 C618.676,215.467 618.841,215.137 619.006,214.807 C621.591,209.582 626.156,206.282 627.311,207.217 C628.081,207.822 626.871,210.682 625.111,212.992 C623.516,215.082 621.261,217.447 618.566,215.742 M639.294,210.737 C640.119,208.537 640.284,206.392 639.349,204.852 C639.019,204.302 638.579,204.247 638.194,204.852 C634.729,210.022 630.714,217.777 629.559,221.242 C628.624,224.047 628.899,225.862 630.109,226.907 C630.604,227.347 630.934,227.127 631.154,226.632 C633.354,221.462 635.994,216.347 639.239,212.827 C642.759,208.977 645.454,207.492 646.114,207.767 C647.214,208.152 641.274,215.742 639.459,220.307 C637.864,224.267 638.634,226.412 639.569,227.237 C640.064,227.787 640.504,227.622 640.834,226.962 C643.144,221.792 645.839,216.512 650.404,211.947 C653.979,208.372 655.849,207.767 656.289,207.932 C657.114,208.207 652.219,214.367 650.184,218.932 C648.149,223.442 649.909,227.237 654.694,227.237 C657.884,227.237 661.404,224.487 662.944,221.352 C663.549,220.087 663.714,218.272 663.439,217.887 C663.164,217.502 662.724,217.502 662.449,217.997 C660.304,221.847 657.829,225.477 655.574,225.532 C653.594,225.587 652.824,223.057 654.364,219.922 C655.739,217.172 658.434,213.542 659.424,211.067 C660.524,208.317 660.084,205.072 658.104,205.017 C656.289,204.962 652.604,207.547 649.964,210.132 C650.679,207.712 649.689,204.797 647.819,204.742 C645.839,204.687 641.714,207.932 639.294,210.737 M666.727,216.952 C670.577,220.087 674.262,218.657 676.957,215.357 C679.267,212.552 679.707,209.197 678.717,207.877 C677.837,206.667 676.847,205.842 675.472,205.017 C672.722,203.422 667.112,206.282 663.537,213.377 C659.962,220.472 662.382,227.347 669.367,227.237 C673.602,227.182 677.837,224.652 680.147,221.297 C681.137,219.867 681.302,218.327 681.082,217.887 C680.862,217.392 680.422,217.392 680.147,217.832 C677.782,221.462 673.767,225.862 669.202,225.642 C666.287,225.477 664.967,222.012 666.727,216.952 M667.222,215.742 C667.332,215.467 667.497,215.137 667.662,214.807 C670.247,209.582 674.812,206.282 675.967,207.217 C676.737,207.822 675.527,210.682 673.767,212.992 C672.172,215.082 669.917,217.447 667.222,215.742 M688.061,210.187 C688.666,208.207 688.721,206.337 687.896,204.962 C687.566,204.412 687.126,204.357 686.741,204.962 C683.276,210.077 679.041,217.722 677.941,221.187 C677.061,223.937 677.391,225.752 678.491,226.852 C678.986,227.347 679.316,227.127 679.536,226.632 C681.901,221.462 684.321,216.182 687.566,212.662 C691.086,208.812 694.276,207.272 694.826,207.492 C695.816,207.932 690.976,213.762 689.161,219.152 C687.566,223.937 688.666,227.347 693.341,227.347 C696.531,227.347 699.996,224.542 701.481,221.462 C702.251,219.867 702.361,218.602 701.976,217.997 C701.701,217.557 701.316,217.557 701.041,218.052 C698.951,221.902 696.256,225.532 694.001,225.642 C692.021,225.752 691.691,223.167 693.121,219.977 C694.386,217.117 697.081,213.047 698.236,210.627 C699.611,207.767 697.906,205.072 696.091,204.797 C694.276,204.522 690.536,207.547 688.061,210.187 M707.026,204.962 C704.661,209.307 702.351,213.927 701.196,216.677 C698.556,223.002 701.471,227.072 705.101,227.182 C709.501,227.347 713.131,222.507 713.846,220.912 C714.396,219.647 714.671,218.657 714.396,217.777 C714.176,217.007 713.571,217.117 713.241,217.777 C711.206,221.902 708.071,225.807 705.596,225.697 C703.286,225.587 702.681,222.177 704.496,218.162 C706.586,213.542 709.721,208.207 711.866,204.522 C713.241,204.302 714.946,204.137 716.156,204.302 C716.981,204.302 717.201,203.917 716.816,203.257 C716.376,202.542 715.551,201.552 713.406,201.607 C714.726,198.747 714.726,196.932 714.121,195.392 C713.846,194.732 713.296,194.677 712.801,195.392 C711.866,196.602 710.326,199.187 708.621,202.212 C707.136,202.377 705.596,202.487 704.056,202.432 C703.231,202.377 702.901,202.762 703.451,203.532 C703.891,204.137 705.156,204.962 707.026,204.962 Z" style="stroke:#ffffff;stroke-opacity:1;stroke-width:1;stroke-linejoin:miter;stroke-miterlimit:2;stroke-linecap:round;fill-rule:nonzero;fill:#ffffff;fill-opacity:1;"/>
        </g>
        <g id="Shape23">
            <desc shapeID="23" type="0" basicInfo-basicType="0" basicInfo-roundedRectRadius="12" basicInfo-polygonSides="6" basicInfo-starPoints="5" bounding="rect(0,0,0,0)" text="" font-familyName="SignPainter" font-pixelSize="55" font-bold="0" font-underline="0" font-alignment="1" strokeStyle="0" markerStart="0" markerEnd="0" shadowEnabled="0" shadowOffsetX="0" shadowOffsetY="2" shadowBlur="4" shadowOpacity="160" blurEnabled="0" blurRadius="4" transform="matrix(1,0,0,1,222.5,463.5)" pers-center="0,0" pers-size="0,0" pers-start="0,0" pers-end="0,0" locked="0" mesh="" flag=""/>
            <path id="shapePath23" d="M222.5,463.5 Z" style="stroke:#ffffff;stroke-opacity:1;stroke-width:3;stroke-linejoin:miter;stroke-miterlimit:2;stroke-linecap:round;fill-rule:evenodd;fill:#000000;fill-opacity:1;"/>
        </g>
        <g id="Shape24">
            <desc shapeID="24" type="0" basicInfo-basicType="0" basicInfo-roundedRectRadius="12" basicInfo-polygonSides="6" basicInfo-starPoints="5" bounding="rect(-52.6154,-0.665366,105.231,1.33072)" text="" font-familyName="SignPainter" font-pixelSize="55" font-bold="0" font-underline="0" font-alignment="1" strokeStyle="0" markerStart="0" markerEnd="0" shadowEnabled="0" shadowOffsetX="0" shadowOffsetY="2" shadowBlur="4" shadowOpacity="160" blurEnabled="0" blurRadius="4" transform="matrix(1,0,0,1,327.097,234.571)" pers-center="0,0" pers-size="0,0" pers-start="0,0" pers-end="0,0" locked="0" mesh="" flag=""/>
            <path id="shapePath24" d="M274.482,234.181 C309.555,237.01 345.095,233.155 379.713,234.041 " style="stroke:#ffffff;stroke-opacity:1;stroke-width:3;stroke-linejoin:miter;stroke-miterlimit:2;stroke-linecap:round;fill-rule:evenodd;fill:#ffffff;fill-opacity:1;"/>
        </g>
        <g id="Shape25">
            <desc shapeID="25" type="0" basicInfo-basicType="0" basicInfo-roundedRectRadius="12" basicInfo-polygonSides="6" basicInfo-starPoints="5" bounding="rect(-34.965,-0.434637,69.93,0.869271)" text="" font-familyName="SignPainter" font-pixelSize="55" font-bold="0" font-underline="0" font-alignment="1" strokeStyle="0" markerStart="0" markerEnd="0" shadowEnabled="0" shadowOffsetX="0" shadowOffsetY="2" shadowBlur="4" shadowOpacity="160" blurEnabled="0" blurRadius="4" transform="matrix(1,0,0,1,436.769,234.163)" pers-center="0,0" pers-size="0,0" pers-start="0,0" pers-end="0,0" locked="0" mesh="" flag=""/>
            <path id="shapePath25" d="M401.804,234.598 C424.832,232.467 449.334,235.03 471.734,234.207 " style="stroke:#ffffff;stroke-opacity:1;stroke-width:3;stroke-linejoin:miter;stroke-miterlimit:2;stroke-linecap:round;fill-rule:evenodd;fill:#ffffff;fill-opacity:1;"/>
        </g>
        <g id="Shape26">
            <desc shapeID="26" type="0" basicInfo-basicType="0" basicInfo-roundedRectRadius="12" basicInfo-polygonSides="6" basicInfo-starPoints="5" bounding="rect(0,0,0,0)" text="" font-familyName="SignPainter" font-pixelSize="55" font-bold="0" font-underline="0" font-alignment="1" strokeStyle="0" markerStart="0" markerEnd="0" shadowEnabled="0" shadowOffsetX="0" shadowOffsetY="2" shadowBlur="4" shadowOpacity="160" blurEnabled="0" blurRadius="4" transform="matrix(1,0,0,1,496.737,234.988)" pers-center="0,0" pers-size="0,0" pers-start="0,0" pers-end="0,0" locked="0" mesh="" flag=""/>
            <path id="shapePath26" d="M496.737,234.988 Z" style="stroke:#ffffff;stroke-opacity:1;stroke-width:3;stroke-linejoin:miter;stroke-miterlimit:2;stroke-linecap:round;fill-rule:evenodd;fill:#ffffff;fill-opacity:1;"/>
        </g>
        <g id="Shape27">
            <desc shapeID="27" type="0" basicInfo-basicType="0" basicInfo-roundedRectRadius="12" basicInfo-polygonSides="6" basicInfo-starPoints="5" bounding="rect(-104.114,-0.190994,208.228,0.382004)" text="" font-familyName="SignPainter" font-pixelSize="55" font-bold="0" font-underline="0" font-alignment="1" strokeStyle="0" markerStart="0" markerEnd="0" shadowEnabled="0" shadowOffsetX="0" shadowOffsetY="2" shadowBlur="4" shadowOpacity="160" blurEnabled="0" blurRadius="4" transform="matrix(1,0,0,1,604.588,235.022)" pers-center="0,0" pers-size="0,0" pers-start="0,0" pers-end="0,0" locked="0" mesh="" flag=""/>
            <path id="shapePath27" d="M500.474,234.831 L708.702,235.213 " style="stroke:#ffffff;stroke-opacity:1;stroke-width:3;stroke-linejoin:miter;stroke-miterlimit:2;stroke-linecap:round;fill-rule:evenodd;fill:#ffffff;fill-opacity:1;"/>
        </g>
        <g id="Shape28">
            <desc shapeID="28" type="0" basicInfo-basicType="0" basicInfo-roundedRectRadius="12" basicInfo-polygonSides="6" basicInfo-starPoints="5" bounding="rect(-12.6222,-0.210648,25.2444,0.421281)" text="" font-familyName="SignPainter" font-pixelSize="55" font-bold="0" font-underline="0" font-alignment="1" strokeStyle="0" markerStart="0" markerEnd="0" shadowEnabled="0" shadowOffsetX="0" shadowOffsetY="2" shadowBlur="4" shadowOpacity="160" blurEnabled="0" blurRadius="4" transform="matrix(1,0,0,1,287.717,235.537)" pers-center="0,0" pers-size="0,0" pers-start="0,0" pers-end="0,0" locked="0" mesh="" flag=""/>
            <path id="shapePath28" d="M275.095,235.327 C283.326,235.696 292.139,236.053 300.34,235.327 " style="stroke:#ffffff;stroke-opacity:1;stroke-width:3;stroke-linejoin:miter;stroke-miterlimit:2;stroke-linecap:round;fill-rule:evenodd;fill:#ffffff;fill-opacity:1;"/>
        </g>
        <g id="Shape29">
            <desc shapeID="29" type="0" basicInfo-basicType="0" basicInfo-roundedRectRadius="12" basicInfo-polygonSides="6" basicInfo-starPoints="5" bounding="rect(0,0,0,0)" text="" font-familyName="SignPainter" font-pixelSize="55" font-bold="0" font-underline="0" font-alignment="1" strokeStyle="0" markerStart="0" markerEnd="0" shadowEnabled="0" shadowOffsetX="0" shadowOffsetY="2" shadowBlur="4" shadowOpacity="160" blurEnabled="0" blurRadius="4" transform="matrix(1,0,0,1,274.404,234.981)" pers-center="0,0" pers-size="0,0" pers-start="0,0" pers-end="0,0" locked="0" mesh="" flag=""/>
            <path id="shapePath29" d="M274.404,234.981 Z" style="stroke:#ffffff;stroke-opacity:1;stroke-width:3;stroke-linejoin:miter;stroke-miterlimit:2;stroke-linecap:round;fill-rule:evenodd;fill:#ffffff;fill-opacity:1;"/>
        </g>
        <g id="Shape30">
            <desc shapeID="30" type="0" basicInfo-basicType="0" basicInfo-roundedRectRadius="12" basicInfo-polygonSides="6" basicInfo-starPoints="5" bounding="rect(-51.8722,0,103.744,0)" text="" font-familyName="SignPainter" font-pixelSize="55" font-bold="0" font-underline="0" font-alignment="1" strokeStyle="0" markerStart="0" markerEnd="0" shadowEnabled="0" shadowOffsetX="0" shadowOffsetY="2" shadowBlur="4" shadowOpacity="160" blurEnabled="0" blurRadius="4" transform="matrix(1,0,0,1,326.622,234.635)" pers-center="0,0" pers-size="0,0" pers-start="0,0" pers-end="0,0" locked="0" mesh="" flag=""/>
            <path id="shapePath30" d="M274.749,234.635 L378.494,234.635 " style="stroke:#ffffff;stroke-opacity:1;stroke-width:3;stroke-linejoin:miter;stroke-miterlimit:2;stroke-linecap:round;fill-rule:evenodd;fill:#ffffff;fill-opacity:1;"/>
        </g>
    </g>
</svg>
